<svg width="71" height="14" viewBox="0 0 71 14" fill="none" xmlns="http://www.w3.org/2000/svg">
<path d="M1.85678 0L0 1.8568L4.70001 6.55679L0 11.1988L1.85678 13.0556L8.41359 6.55679L1.85678 0Z" fill="#444E63" fill-opacity="0.5"/>
<path d="M12.2704 0L10.4136 1.8568L15.1136 6.55679L10.4136 11.1988L12.2704 13.0556L18.8272 6.55679L12.2704 0Z" fill="#444E63" fill-opacity="0.5"/>
<path d="M22.6839 0L20.8271 1.8568L25.5272 6.55679L20.8271 11.1988L22.6839 13.0556L29.2407 6.55679L22.6839 0Z" fill="#444E63" fill-opacity="0.5"/>
<path d="M33.0975 0L31.2407 1.8568L35.9407 6.55679L31.2407 11.1988L33.0975 13.0556L39.5963 6.55679L33.0975 0Z" fill="#444E63" fill-opacity="0.5"/>
<path d="M43.4531 0L41.5963 1.8568L46.2963 6.55679L41.5963 11.1988L43.4531 13.0556L49.9519 6.55679L43.4531 0Z" fill="#444E63" fill-opacity="0.5"/>
<path d="M53.8087 0L51.9519 1.8568L56.5939 6.55679L51.9519 11.1988L53.8087 13.0556L60.3075 6.55679L53.8087 0Z" fill="#444E63" fill-opacity="0.5"/>
<path d="M64.1643 0L62.3075 1.8568L66.9495 6.55679L62.3075 11.1988L64.1643 13.0556L70.6631 6.55679L64.1643 0Z" fill="#444E63" fill-opacity="0.5"/>
</svg>
