<svg width="614" height="420" viewBox="0 0 614 420" fill="none" xmlns="http://www.w3.org/2000/svg">
<path d="M150.297 220.254L159.097 197.118L167.897 220.254L169.459 224.37L175.988 241.544H185.213L162.504 184.628H155.975L132.697 241.544H142.065L148.594 224.37L150.297 220.254Z" fill="white"/>
<path d="M336.375 192.434V184.628H297.91V241.544H306.284V215.002H333.252V207.139H306.284V192.378L336.375 192.434Z" fill="white"/>
<path d="M371.007 184.628H379.523V241.544H371.007V184.628Z" fill="white"/>
<path d="M458.865 192.718V184.628H420.542V241.544H460.852V233.454H429.059V216.421H456.026V208.331H429.059V192.718H458.865Z" fill="white"/>
<path d="M599.522 186.331C595.548 184.77 590.722 184.77 585.187 184.628H568.438V241.686H584.051C592.993 241.686 598.387 241.686 603.78 237.428C610.309 232.318 614 223.518 614 213.015C614 200.241 608.322 189.738 599.522 186.331V186.331ZM596.684 232.176C593.561 233.596 587.884 233.596 584.477 233.596H576.955V192.718H584.619C591.006 192.718 593.703 192.718 596.4 193.854C601.935 196.267 605.484 204.073 605.484 213.157C605.484 223.518 601.084 230.189 596.684 232.176V232.176Z" fill="white"/>
<path d="M22.9813 190.873C24.9357 190.775 26.8849 191.15 28.6638 191.965C30.4426 192.781 31.9989 194.013 33.2006 195.557C33.8573 196.422 34.3833 197.378 34.7619 198.396L35.1877 199.531H44.4135L43.8458 197.402C42.0006 190.873 35.4716 183.209 23.1232 183.209C13.7555 183.209 3.67809 187.325 3.67809 198.822C3.67809 210.744 14.6071 213.441 21.1361 215.144L21.7039 215.286C28.091 216.989 30.9297 217.699 33.0587 219.544C33.9128 220.244 34.5893 221.136 35.0333 222.148C35.4773 223.159 35.6761 224.261 35.6135 225.364C35.6135 229.764 32.2071 235.015 22.4135 235.015C19.7168 235.015 13.0458 234.447 10.349 229.054C9.80397 227.892 9.46766 226.642 9.3555 225.364L9.49744 223.802H0.413574L0.697445 225.789C1.11261 228.505 2.06751 231.109 3.50579 233.45C4.94407 235.79 6.83658 237.818 9.07163 239.415C13.1399 241.85 17.8156 243.081 22.5555 242.964C36.749 242.964 44.2716 234.022 44.2716 225.222C44.2716 219.97 41.8587 212.873 30.7877 209.467C29.7942 209.041 26.8135 208.331 23.1232 207.338C21.5619 206.912 20.2845 206.628 19.8587 206.486C15.7426 205.209 12.0523 203.505 12.0523 198.822C12.1942 191.157 21.2781 190.873 22.9813 190.873Z" fill="white"/>
<path d="M259.73 201.66C259.73 197.26 258.594 188.602 249.085 185.621C245.536 184.486 237.872 184.77 234.039 184.77H216.865V241.686H225.381V217.841H235.459L252.349 241.544H262.994L245.394 217.415C249.087 217.033 252.565 215.493 255.33 213.015C256.78 211.509 257.917 209.73 258.672 207.78C259.428 205.831 259.787 203.75 259.73 201.66V201.66ZM244.968 209.467C242.103 209.891 239.203 210.034 236.31 209.892H225.381V192.434H236.736C239.436 192.322 242.141 192.417 244.826 192.718C250.362 193.854 251.214 198.538 251.214 201.234C251.214 203.931 250.504 208.331 244.968 209.467Z" fill="white"/>
<path d="M113.962 184.642V192.449H71.665V184.642H113.962Z" fill="white"/>
<path d="M536.504 233.468V241.7H494.491C494.775 239.855 495.2 237.158 495.626 233.468H536.504Z" fill="white"/>
<path fill-rule="evenodd" clip-rule="evenodd" d="M87 209.727C87.0162 201.363 87.5216 193.008 88.5136 184.704C90.608 184.914 96 186.5 98.6011 185.228C97.6025 193.36 97.0937 201.544 97.0774 209.737C97.0938 218.117 97.6025 226.49 98.6009 234.811C104.608 282.294 127.435 326.052 162.943 358.146C198.454 390.243 244.295 408.547 292.148 409.737C340.001 410.926 386.694 394.921 423.756 364.628C460.818 334.334 485.793 291.758 494.148 244.625L504.071 246.384C495.295 295.89 469.062 340.611 430.134 372.43C391.206 404.25 342.16 421.06 291.898 419.811C241.635 418.562 193.485 399.336 156.185 365.622C118.886 331.908 94.9071 285.94 88.6011 236.059L88.5991 236.043L88.5972 236.028C87.5501 227.306 87.0168 218.531 87 209.746L87 209.737L87 209.727Z" fill="white"/>
<path fill-rule="evenodd" clip-rule="evenodd" d="M165.044 46.5995C206.406 13.229 258.875 -3.23316 311.887 0.527097C364.899 4.28736 414.519 27.9908 450.757 66.8656C486.993 105.739 507.159 156.896 507.194 210.039C507.194 210.041 507.194 210.044 507.194 210.046L502.155 210.049L507.194 210.031C507.194 210.034 507.194 210.037 507.194 210.039C507.231 220.651 506.452 231.251 504.866 241.744L494.902 240.238C496.412 230.252 497.152 220.165 497.117 210.066L497.117 210.052C497.085 159.455 477.886 110.748 443.386 73.737C408.885 36.7261 361.645 14.1592 311.174 10.5792C260.704 6.99928 210.751 22.6721 171.371 54.4426C131.992 86.2131 106.111 131.722 98.937 181.808L88.9614 180.38C96.4963 127.771 123.681 79.97 165.044 46.5995Z" fill="white"/>
</svg>
