<svg width="1793" height="43" viewBox="0 0 1793 43" fill="none" xmlns="http://www.w3.org/2000/svg">
<path fill-rule="evenodd" clip-rule="evenodd" d="M691.214 10.6191C700.973 6.25548 711.544 4 722.234 4H743.583L776.937 37.4215C780.502 40.993 785.34 43 790.386 43H1002.61C1007.66 43 1012.5 40.993 1016.06 37.4215L1049.42 4H1070.77C1081.46 4 1092.03 6.25548 1101.79 10.6191L1138.5 27.0325C1148.77 31.6258 1159.9 34 1171.15 34H1793V30H1171.15C1160.46 30 1149.89 27.7445 1140.13 23.3809L1103.42 6.96748C1093.15 2.37419 1082.02 0 1070.77 0H722.234C710.981 0 699.854 2.37419 689.581 6.96748L652.871 23.3809C643.111 27.7445 632.541 30 621.85 30H0V34H621.85C633.103 34 644.23 31.6258 654.503 27.0325L691.214 10.6191ZM1046.59 4H746.409L778.353 36.0087C781.542 39.2042 785.871 41 790.386 41H1002.61C1007.13 41 1011.46 39.2042 1014.65 36.0087L1046.59 4Z" fill="#444E63" fill-opacity="0.5"/>
</svg>
