<svg width="1793" height="48" viewBox="0 0 1793 48" fill="none" xmlns="http://www.w3.org/2000/svg">
<path d="M0 2H621.85C632.822 2 643.671 4.31484 653.687 8.7933L690.397 25.2067C700.414 29.6852 711.262 32 722.234 32H1070.77C1081.74 32 1092.59 29.6852 1102.6 25.2067L1139.31 8.7933C1149.33 4.31484 1160.18 2 1171.15 2H1793" stroke="#444E63" stroke-opacity="0.5" stroke-width="4"/>
<circle cx="1735" cy="30" r="14.5" stroke="#444E63" stroke-opacity="0.5" stroke-width="3"/>
<circle cx="1735" cy="30" r="7" fill="#444E63" fill-opacity="0.5"/>
<path fill-rule="evenodd" clip-rule="evenodd" d="M1761.05 17.4C1761.8 17.4 1762.4 16.7956 1762.4 16.05C1762.4 15.3044 1761.8 14.7 1761.05 14.7C1760.3 14.7 1759.7 15.3044 1759.7 16.05C1759.7 16.7956 1760.3 17.4 1761.05 17.4ZM1761.05 20.1C1761.68 20.1 1762.27 19.9583 1762.8 19.7053L1765.19 22.0961C1763.44 24.2576 1762.4 27.0069 1762.4 30C1762.4 32.9931 1763.44 35.7424 1765.19 37.904L1762.8 40.2947C1762.27 40.0417 1761.68 39.9 1761.05 39.9C1758.81 39.9 1757 41.7132 1757 43.95C1757 46.1867 1758.81 48 1761.05 48C1763.29 48 1765.1 46.1867 1765.1 43.95C1765.1 43.3248 1764.96 42.7327 1764.71 42.204L1767.1 39.8132C1769.26 41.5564 1772.01 42.6 1775 42.6C1777.99 42.6 1780.74 41.5564 1782.9 39.8132L1785.29 42.2039C1785.04 42.7326 1784.9 43.3248 1784.9 43.95C1784.9 46.1867 1786.71 48 1788.95 48C1791.19 48 1793 46.1867 1793 43.95C1793 41.7132 1791.19 39.9 1788.95 39.9C1788.32 39.9 1787.73 40.0417 1787.2 40.2947L1784.81 37.904C1786.56 35.7425 1787.6 32.9931 1787.6 30C1787.6 27.0068 1786.56 24.2574 1784.81 22.0959L1787.2 19.7052C1787.73 19.9583 1788.32 20.1 1788.95 20.1C1791.19 20.1 1793 18.2868 1793 16.05C1793 13.8132 1791.19 12 1788.95 12C1786.71 12 1784.9 13.8132 1784.9 16.05C1784.9 16.6752 1785.04 17.2673 1785.29 17.7959L1782.9 20.1867C1780.74 18.4436 1777.99 17.4 1775 17.4H1775L1775 17.4C1772 17.401 1769.26 18.4445 1767.1 20.1869L1764.71 17.7961C1764.96 17.2674 1765.1 16.6753 1765.1 16.05C1765.1 13.8132 1763.29 12 1761.05 12C1758.81 12 1757 13.8132 1757 16.05C1757 18.2868 1758.81 20.1 1761.05 20.1ZM1769.63 31.35C1769.77 34.4297 1770.39 37.1779 1771.3 39.1871C1768.07 37.8838 1765.68 34.9196 1765.19 31.35H1769.63ZM1772.33 31.35C1772.47 33.9799 1772.98 36.2438 1773.66 37.8459C1774.07 38.7859 1774.48 39.3741 1774.79 39.6881C1774.88 39.7753 1774.95 39.8298 1775 39.8633C1775.05 39.8298 1775.12 39.7753 1775.21 39.6881C1775.52 39.3741 1775.93 38.7859 1776.34 37.8459C1777.02 36.2438 1777.53 33.9799 1777.67 31.35H1772.33ZM1772.33 28.65C1772.47 26.0201 1772.98 23.7562 1773.66 22.154C1774.07 21.214 1774.48 20.6258 1774.79 20.3119C1774.88 20.2247 1774.95 20.1701 1775 20.1367C1775.05 20.1701 1775.12 20.2247 1775.21 20.3119C1775.52 20.6258 1775.93 21.214 1776.34 22.154C1777.02 23.7562 1777.53 26.0201 1777.67 28.65H1772.33ZM1780.37 31.35C1780.23 34.4298 1779.61 37.1781 1778.7 39.1873C1781.93 37.8841 1784.32 34.9198 1784.81 31.35H1780.37ZM1784.81 28.65H1780.37C1780.23 25.5701 1779.61 22.8219 1778.7 20.8127C1781.93 22.1159 1784.32 25.0802 1784.81 28.65ZM1769.63 28.65H1765.19C1765.68 25.0804 1768.07 22.1162 1771.3 20.8129C1770.39 22.822 1769.77 25.5702 1769.63 28.65ZM1762.4 43.95C1762.4 44.6956 1761.8 45.3 1761.05 45.3C1760.3 45.3 1759.7 44.6956 1759.7 43.95C1759.7 43.2044 1760.3 42.6 1761.05 42.6C1761.8 42.6 1762.4 43.2044 1762.4 43.95ZM1788.95 17.4C1789.7 17.4 1790.3 16.7956 1790.3 16.05C1790.3 15.3044 1789.7 14.7 1788.95 14.7C1788.2 14.7 1787.6 15.3044 1787.6 16.05C1787.6 16.7956 1788.2 17.4 1788.95 17.4ZM1790.3 43.95C1790.3 44.6956 1789.7 45.3 1788.95 45.3C1788.2 45.3 1787.6 44.6956 1787.6 43.95C1787.6 43.2044 1788.2 42.6 1788.95 42.6C1789.7 42.6 1790.3 43.2044 1790.3 43.95Z" fill="#444E63" fill-opacity="0.5"/>
<path fill-rule="evenodd" clip-rule="evenodd" d="M1707.3 14.1399C1704.7 11.5367 1700.48 11.5367 1697.88 14.1399L1693.89 18.1305C1693.3 18.7162 1693.3 19.666 1693.89 20.2518C1694.47 20.8376 1695.42 20.8376 1696.01 20.2518L1700 16.2612C1701.43 14.8296 1703.75 14.8296 1705.18 16.2612L1705.62 16.7029C1707.05 18.1345 1707.05 20.4555 1705.62 21.8871L1697.64 29.8683C1696.21 31.2999 1693.89 31.2999 1692.46 29.8683L1692.24 29.6474C1691.65 29.0617 1690.7 29.0617 1690.12 29.6474C1689.53 30.2332 1689.53 31.183 1690.12 31.7688L1690.34 31.9896C1692.94 34.5928 1697.16 34.5928 1699.76 31.9896L1707.74 24.0084C1710.35 21.4053 1710.35 17.1847 1707.74 14.5816L1707.3 14.1399ZM1680.2 41.366C1682.77 43.9342 1686.94 43.9342 1689.5 41.366C1690.09 40.7802 1690.09 39.8305 1689.5 39.2447C1688.92 38.6589 1687.97 38.6589 1687.38 39.2447C1685.99 40.6413 1683.72 40.6413 1682.32 39.2447L1681.83 38.755C1680.4 37.3234 1680.4 35.0024 1681.83 33.5708L1688.89 26.5186C1690.32 25.087 1692.64 25.087 1694.07 26.5186L1694.28 26.7318C1694.87 27.3176 1695.82 27.3176 1696.41 26.7318C1696.99 26.146 1696.99 25.1963 1696.41 24.6105L1696.19 24.3973C1693.59 21.7941 1689.37 21.7941 1686.77 24.3973L1679.71 31.4495C1677.11 34.0526 1677.11 38.2732 1679.71 40.8763L1680.2 41.366Z" fill="#444E63" fill-opacity="0.5"/>
<path fill-rule="evenodd" clip-rule="evenodd" d="M1700.49 37.6085C1701.07 37.0227 1701.07 36.073 1700.49 35.4872C1699.9 34.9014 1698.95 34.9014 1698.37 35.4872L1695.43 38.4265L1692.49 35.4872C1691.9 34.9014 1690.95 34.9014 1690.37 35.4872C1689.78 36.073 1689.78 37.0227 1690.37 37.6085L1693.3 40.5479L1690.37 43.4872C1689.78 44.073 1689.78 45.0227 1690.37 45.6085C1690.95 46.1943 1691.9 46.1943 1692.49 45.6085L1695.43 42.6692L1698.37 45.6085C1698.95 46.1943 1699.9 46.1943 1700.49 45.6085C1701.07 45.0227 1701.07 44.073 1700.49 43.4872L1697.55 40.5479L1700.49 37.6085Z" fill="#444E63" fill-opacity="0.5"/>
<rect x="1" y="14" width="116" height="28" stroke="#444E63" stroke-opacity="0.5" stroke-width="2"/>
<rect x="6" y="19" width="18" height="18" fill="#444E63" fill-opacity="0.5"/>
<rect x="28" y="19" width="18" height="18" fill="#444E63" fill-opacity="0.5"/>
<rect x="50" y="19" width="18" height="18" fill="#444E63" fill-opacity="0.5"/>
<rect x="72" y="19" width="18" height="18" fill="#444E63" fill-opacity="0.5"/>
</svg>
