<svg width="46" height="869" viewBox="0 0 46 869" fill="none" xmlns="http://www.w3.org/2000/svg">
<path d="M0 3H45.0767" stroke="white" stroke-width="4.69549"/>
<path d="M0 110.527H45.0767" stroke="white" stroke-width="4.69549"/>
<path d="M9.39111 24.1296H35.6858" stroke="white" stroke-width="3.75639"/>
<path d="M9.39111 45.7289H35.6858" stroke="white" stroke-width="3.75639"/>
<path d="M9.39111 67.3281H35.6858" stroke="white" stroke-width="3.75639"/>
<path d="M9.39111 88.9274H35.6858" stroke="white" stroke-width="3.75639"/>
<path d="M0 218.523H45.0767" stroke="white" stroke-width="4.69549"/>
<path d="M9.39111 132.126H35.6858" stroke="white" stroke-width="3.75639"/>
<path d="M9.39111 153.725H35.6858" stroke="white" stroke-width="3.75639"/>
<path d="M9.39111 175.324H35.6858" stroke="white" stroke-width="3.75639"/>
<path d="M9.39111 196.924H35.6858" stroke="white" stroke-width="3.75639"/>
<path d="M0 326.519H45.0767" stroke="white" stroke-width="4.69549"/>
<path d="M9.39111 240.122H35.6858" stroke="white" stroke-width="3.75639"/>
<path d="M9.39111 261.721H35.6858" stroke="white" stroke-width="3.75639"/>
<path d="M9.39111 283.321H35.6858" stroke="white" stroke-width="3.75639"/>
<path d="M9.39111 304.92H35.6858" stroke="white" stroke-width="3.75639"/>
<path d="M0 434.515H45.0767" stroke="white" stroke-width="4.69549"/>
<path d="M9.39111 348.118H35.6858" stroke="white" stroke-width="3.75639"/>
<path d="M9.39111 369.718H35.6858" stroke="white" stroke-width="3.75639"/>
<path d="M9.39111 391.317H35.6858" stroke="white" stroke-width="3.75639"/>
<path d="M9.39111 412.916H35.6858" stroke="white" stroke-width="3.75639"/>
<path d="M0 542.511H45.0767" stroke="white" stroke-width="4.69549"/>
<path d="M9.39111 456.115H35.6858" stroke="white" stroke-width="3.75639"/>
<path d="M9.39111 477.714H35.6858" stroke="white" stroke-width="3.75639"/>
<path d="M9.39111 499.313H35.6858" stroke="white" stroke-width="3.75639"/>
<path d="M9.39111 520.912H35.6858" stroke="white" stroke-width="3.75639"/>
<path d="M0 650.508H45.0767" stroke="white" stroke-width="4.69549"/>
<path d="M9.39111 564.111H35.6858" stroke="white" stroke-width="3.75639"/>
<path d="M9.39111 585.71H35.6858" stroke="white" stroke-width="3.75639"/>
<path d="M9.39111 607.309H35.6858" stroke="white" stroke-width="3.75639"/>
<path d="M9.39111 628.908H35.6858" stroke="white" stroke-width="3.75639"/>
<path d="M0 758.504H45.0767" stroke="white" stroke-width="4.69549"/>
<path d="M9.39111 672.107H35.6858" stroke="white" stroke-width="3.75639"/>
<path d="M9.39111 693.706H35.6858" stroke="white" stroke-width="3.75639"/>
<path d="M9.39111 715.305H35.6858" stroke="white" stroke-width="3.75639"/>
<path d="M9.39111 736.905H35.6858" stroke="white" stroke-width="3.75639"/>
<path d="M0 866.5H45.0767" stroke="white" stroke-width="4.69549"/>
<path d="M9.39111 780.103H35.6858" stroke="white" stroke-width="3.75639"/>
<path d="M9.39111 801.702H35.6858" stroke="white" stroke-width="3.75639"/>
<path d="M9.39111 823.302H35.6858" stroke="white" stroke-width="3.75639"/>
<path d="M9.39111 844.901H35.6858" stroke="white" stroke-width="3.75639"/>
</svg>
